<svg width="112" height="111" viewBox="0 0 112 111" fill="none" xmlns="http://www.w3.org/2000/svg">
<path d="M12.4062 78.1242C18.3245 75.7568 16.4581 73.4352 10.3122 75.5292C6.94352 76.6673 6.67017 76.9407 7.44415 78.1699C8.17243 79.3534 9.31055 79.3534 12.4062 78.1242Z" fill="black"/>
<path d="M10.7682 80.2637C8.26431 81.1742 7.80941 81.7206 8.9472 82.5854C10.131 83.4959 12.5435 83.1771 14.7743 81.8571C17.9154 79.945 14.8655 78.7615 10.7682 80.2637Z" fill="black"/>
<path d="M100.77 55.1344C98.4025 53.4046 97.9472 52.5852 98.9031 51.9934C99.4949 51.6293 103.365 43.6166 106.051 37.2435C109.465 29.1401 109.738 29.3677 96.7637 29.1401L87.5222 28.9578L88.3873 27.2733C95.8532 12.6145 93.1217 5.92256 82.2414 12.2507C79.5099 13.8437 76.1866 15.7559 74.8662 16.4387C72.044 17.9864 72.1347 18.3962 73.2729 10.7027C74.3199 3.55517 72.2259 1.37002 67.4461 4.60218C66.5809 5.19395 63.5307 7.56133 60.708 9.83724C54.699 14.7085 55.1996 14.5266 53.925 12.0684C51.33 7.19719 47.4604 5.4673 45.867 8.51722C43.8183 12.4322 41.1326 26.6816 42.3618 27.0914C43.8187 27.5921 47.142 22.3113 49.0084 16.5295C49.3271 15.619 51.1935 17.6223 51.7853 19.4886C52.5135 21.8106 53.652 21.3096 60.7992 15.619C63.4853 13.4339 65.807 11.704 65.8527 11.704C65.9434 11.704 65.7158 13.2066 65.3517 14.9819C62.9843 27.0914 65.7158 25.6803 76.3685 20.3538C85.9742 15.5282 85.064 15.3917 83.1062 21.4919L80.648 29.2312C79.0546 34.2386 80.648 36.3783 84.6995 34.6938C86.5205 33.9202 99.8136 34.1932 99.8136 34.9672C99.8136 35.1491 98.539 37.653 97.0367 40.4756C93.0763 47.805 92.4388 49.9902 91.2096 51.6289C90.0261 53.1316 90.9366 56.2272 92.8029 56.5913C94.7605 56.9555 97.3555 59.687 102.272 64.376C87.7044 70.112 87.3853 69.2926 95.0335 79.7634C97.1732 82.7222 98.9035 85.1807 98.8124 85.2718C98.7212 85.3172 95.671 85.1807 91.9836 84.9077C82.6509 84.2248 81.8315 84.7254 84.1078 89.3687C85.5189 92.2368 85.4735 92.2371 82.0592 90.2339C74.9574 86.0001 69.4943 88.3217 76.3231 92.6924C92.8029 103.299 94.897 103.573 92.8029 95.014C91.255 88.8227 91.3007 88.7316 93.1217 88.9592C95.6256 89.278 102.636 89.4599 104.594 90.1428C110.603 92.2825 109.465 87.8211 101.362 77.7602C99.04 74.8464 97.1279 72.2972 97.1279 72.0695C97.1279 71.5232 107.007 67.0621 109.055 66.6976C110.649 66.4246 110.785 65.2411 109.647 63.4655C108.281 61.3257 105.231 58.3666 100.77 55.1344Z" fill="black"/>
<path d="M46.6868 87.6384C56.429 88.0936 64.7597 91.5537 74.3654 85.772C86.2473 78.6702 76.8693 45.5737 69.3122 34.9667C64.3044 27.9557 57.3395 24.1772 48.4621 28.8662C43.0902 31.6888 41.9978 32.5993 35.3055 40.0199C32.1188 43.5254 28.4768 47.1217 27.2021 47.9411C25.9275 48.8062 24.3798 49.8532 23.7423 50.2627C8.49174 60.7789 5.07735 63.465 3.84811 66.0143C0.479118 72.9796 1.89059 81.9477 7.17138 86.8644C8.58253 88.1848 20.0546 95.8783 20.601 95.8783C20.7832 95.8783 21.6937 96.9257 22.6042 98.2003C29.3873 107.669 37.1265 109.991 44.3648 104.801C49.5549 101.114 49.3272 98.1546 43.4543 92.5096L41.6333 90.7797L43.5001 87.4107L46.6868 87.6384ZM5.94214 72.57C7.62664 66.8336 16.0484 58.5937 15.3202 63.3739C14.4097 69.3375 19.6451 80.1725 25.3811 84.3151L27.7485 86.0453L26.064 87.1831C17.5053 93.1925 3.02874 82.6309 5.94214 72.57ZM41.9067 99.2927C40.5863 100.294 39.4028 98.3822 39.4028 98.3822C37.4453 96.4247 35.6239 97.1987 36.9897 99.2016C37.9459 100.567 38.4466 100.522 37.0808 101.979C35.1233 104.027 34.2585 103.663 29.5695 99.2016C22.1944 92.1455 21.7395 91.0985 25.3357 89.6416C27.1114 88.913 27.1567 88.5489 28.2491 90.5064C30.2066 94.0119 32.574 93.4202 37.3084 92.8738C37.9459 92.7827 38.5377 93.056 38.9475 93.5113L40.2222 95.0589C41.2238 96.0148 42.9083 98.5187 41.9067 99.2927ZM37.263 86.819C38.9018 88.0482 35.6697 90.5064 34.2585 90.5064C33.3023 90.5064 31.0264 88.8676 31.0264 88.1848C31.0264 87.2742 36.1249 85.9542 37.263 86.819ZM26.4739 79.8994C16.1853 70.6125 16.0031 60.0506 26.0186 53.9504C32.1188 50.2173 37.4453 45.8016 41.2692 41.2945C42.6807 39.6557 44.3648 37.0607 45.3211 36.2867C46.8233 35.0121 47.051 36.1502 46.277 37.4249C36.8078 52.4936 41.9978 70.4757 48.7808 77.8962C57.6583 87.593 72.3625 83.9964 72.3625 73.116C72.3625 70.6579 71.3155 70.1569 70.5415 72.3424C65.5337 86.9555 56.4744 77.4867 56.429 77.4867C57.5671 73.5713 58.1132 70.3391 63.6216 67.6988C73.4095 63.0551 64.9873 48.2144 54.5169 51.6284C50.2374 53.0399 45.4576 50.8091 45.0477 50.3538C45.0477 50.3084 46.0036 38.6087 53.834 33.874C56.0645 32.5082 54.38 30.6872 51.7854 31.9622C50.0555 32.827 49.3269 31.78 50.0098 31.006C51.8765 28.9119 55.0175 28.3202 57.0662 29.1849C75.0483 36.742 86.6114 86.045 64.7597 85.6355C61.8463 85.5897 55.7004 84.6796 46.6868 83.6322C38.2647 82.7217 32.7563 85.5901 26.4739 79.8994ZM46.0493 57.1826C46.0493 56.5908 46.5957 56.3178 48.6897 56.0902C50.1466 55.9079 51.6035 55.5892 51.9676 55.4073C53.6975 54.4057 54.107 54.9063 54.3804 58.2296C54.6991 61.9627 56.0192 65.0584 57.6583 65.9231C58.2954 66.2419 58.7964 66.6972 58.7964 66.8794C58.7964 67.2435 52.013 72.2513 51.4666 72.2513C50.6019 72.2967 46.0493 59.5954 46.0493 57.1826ZM60.7536 54.6787C61.4364 55.7257 62.8933 61.0522 62.8933 62.5088C62.8933 63.7837 61.892 62.5999 60.5717 59.7776C58.6595 55.8168 58.8418 51.7653 60.7536 54.6787Z" fill="black"/>
</svg>
